<svg width="24" height="24" viewBox="0 0 24 24" fill="none" xmlns="http://www.w3.org/2000/svg">
<path d="M16.3457 4.82892L19.1741 7.65735C19.3616 7.84489 19.467 8.09924 19.467 8.36446C19.467 8.62967 19.3616 8.88403 19.1741 9.07156L18.1276 10.1181C18.0901 10.1556 18.0392 10.1767 17.9862 10.1767C17.9331 10.1767 17.8823 10.1556 17.8447 10.1181L13.8779 6.15121C13.8404 6.11371 13.8193 6.06284 13.8193 6.00979C13.8193 5.95675 13.8404 5.90588 13.8779 5.86837L14.9244 4.82185C15.1119 4.63432 15.3663 4.52896 15.6315 4.52896C15.8967 4.52896 16.1511 4.63432 16.3386 4.82185L16.3457 4.82892Z" fill="#000D26"/>
<path d="M16.77 11.18L12.77 7.17996C12.7522 7.16056 12.7306 7.14507 12.7065 7.13447C12.6824 7.12388 12.6563 7.11841 12.63 7.11841C12.6037 7.11841 12.5776 7.12388 12.5535 7.13447C12.5294 7.14507 12.5078 7.16056 12.49 7.17996L10.91 8.83996L4.82 14.93C4.72732 15.0234 4.65399 15.1342 4.60423 15.256C4.55446 15.3779 4.52924 15.5083 4.53 15.64V18.47C4.53 18.7352 4.63536 18.9895 4.82289 19.1771C5.01043 19.3646 5.26478 19.47 5.53 19.47H8.36C8.49231 19.4694 8.62319 19.4426 8.74507 19.3911C8.86694 19.3396 8.97739 19.2644 9.07 19.17L15.15 13.08L16.77 11.46C16.7894 11.4422 16.8049 11.4205 16.8155 11.3964C16.8261 11.3723 16.8315 11.3463 16.8315 11.32C16.8315 11.2936 16.8261 11.2676 16.8155 11.2435C16.8049 11.2194 16.7894 11.1978 16.77 11.18Z" fill="#000D26"/>
</svg>
